<?xml version="1.0" encoding="utf-8"?>
<!-- Generator: Adobe Illustrator 22.0.0, SVG Export Plug-In . SVG Version: 6.00 Build 0)  -->
<svg version="1.1" id="Livello_1" xmlns="http://www.w3.org/2000/svg" xmlns:xlink="http://www.w3.org/1999/xlink" x="0px" y="0px"
	 viewBox="0 0 53 65" style="enable-background:new 0 0 53 65;" xml:space="preserve">
<style type="text/css">
	.st0{fill:#FFFFFF;}
	.st1{fill:#14131D;}
</style>
<title>logo</title>
<g>
	<path class="st0" d="M9.1,53.8c-0.5,0-0.9-0.2-1.2-0.6c-1.9-2.8-2.6-6.1-2-9.4c0.2-0.8,0.9-1.3,1.7-1.2c0.8,0.1,1.3,0.9,1.2,1.7
		c0,0,0,0,0,0c-0.5,2.5,0.1,5.1,1.5,7.2c0.5,0.7,0.3,1.6-0.4,2C9.7,53.7,9.4,53.8,9.1,53.8 M8.2,19.6c-0.8,0-1.4-0.6-1.5-1.4
		c-0.2-3.1,0.9-6.1,3-8.4c2.1-2.3,5-3.7,8.2-3.9c1.9-0.1,3.8,0.2,5.5,1c0.7,0.3,1.1,1.2,0.8,1.9c0,0,0,0,0,0c-0.3,0.7-1.2,1.1-2,0.8
		C21,9,19.5,8.8,18.1,8.9C15.7,9,13.5,10,12,11.8c-1.6,1.7-2.4,3.9-2.2,6.2C9.8,18.8,9.1,19.5,8.2,19.6C8.3,19.6,8.3,19.6,8.2,19.6"
		/>
	<path class="st1" d="M31.7,55.8c-3,3.1-6.4,5.5-10.4,6C20.5,62,19.8,62,19.1,62c-3.4,0-6.8-1.1-9.5-3.2c-6.9-5.2-8.3-14.5-4.3-20
		c0.7-1,1.4-2.1,1.9-3.3c0.3,0.8,0.4,1.8,0.5,2.9c0,0.8,0.7,1.4,1.6,1.4c0.8,0,1.4-0.7,1.4-1.5c0,0,0,0,0,0
		c-0.2-4.2-1.7-6.4-3.2-8.3c0,0-0.1-0.1-0.1-0.1c-0.1-0.1-0.2-0.2-0.2-0.4C0.9,21.4,3.8,12.9,6.8,9c1.9-2.5,6.4-5.9,11.7-5.9
		c4,0,8.5,1.9,12.7,7.6C41.5,24.7,44.5,42.4,31.7,55.8 M43.1,33.3c-0.5-8.1-3.7-16.5-9.5-24.3c-2.2-3-4.7-5.3-7.4-6.8
		c-2.5-1.4-5.1-2.1-7.7-2.1c-6,0-11.4,3.5-14,7.1C2.3,10,0.9,13.7,0.6,17.4c-0.4,4.9,1,9.7,4.1,13.9c0.7,1,0,3.3-1.8,5.8
		C0.4,40.4-0.5,45,0.4,49.5c0.9,4.6,3.5,8.8,7.4,11.7C11,63.6,15,65,19.1,65c0.9,0,1.7-0.1,2.6-0.2c4.3-0.6,8.4-2.9,12.2-6.9
		c3.4-3.6,5.9-7.5,7.4-11.8C42.7,42,43.3,37.7,43.1,33.3 M44.8,23.7c-0.7,0-1.3-0.5-1.4-1.1c-0.2-0.8,0.3-1.6,1.1-1.8c0,0,0,0,0,0
		l3.4-0.8c0.8-0.2,1.6,0.3,1.8,1.1c0.2,0.8-0.3,1.6-1.1,1.8c0,0,0,0,0,0l-3.4,0.8C45,23.7,44.9,23.7,44.8,23.7 M47.7,28.5l-0.1,0
		l-2.4-0.2c-0.8-0.1-1.4-0.8-1.4-1.6c0,0,0,0,0,0c0.1-0.8,0.8-1.4,1.6-1.4l2.4,0.2c0.8,0.1,1.4,0.8,1.4,1.6c0,0,0,0,0,0
		C49.1,27.9,48.4,28.5,47.7,28.5 M43.2,19.6c-0.5,0-1-0.2-1.3-0.7c-0.4-0.7-0.2-1.6,0.4-2c0,0,0,0,0,0l2-1.3c0.7-0.4,1.6-0.2,2,0.4
		c0.4,0.7,0.2,1.6-0.5,2l-2,1.3C43.8,19.6,43.5,19.6,43.2,19.6"/>
	<path class="st1" d="M27.8,26.8c-0.2,0-0.5-0.1-0.7-0.2c-0.7-0.4-0.9-1.2-0.6-1.9c0,0,0,0,0,0c0.8-1.4,2.1-2.3,3.7-2.6
		c1.6-0.3,3.3,0.2,4.6,1.4c0.6,0.5,0.7,1.4,0.1,2c-0.5,0.6-1.4,0.6-2,0.1c-0.7-0.6-1.5-0.8-2.3-0.7c-0.7,0.1-1.3,0.5-1.7,1.1
		C28.8,26.6,28.3,26.8,27.8,26.8 M24.8,44c-2,0-3.9-0.6-5.6-1.7c-1.9-1.2-3.3-3-4.2-5.1c-0.3-0.8,0.1-1.7,0.8-2c0,0,0,0,0,0
		c0.8-0.3,1.7,0.1,2,0.8c1.1,2.7,3.9,5.2,7.7,4.8c4.1-0.4,6.8-3.4,6.8-5.9c0-0.8,0.7-1.5,1.5-1.5h0c0.8,0,1.5,0.7,1.5,1.5
		c0,2.3-1.1,4.4-3.1,6.1c-1.8,1.5-4.2,2.5-6.5,2.8C25.5,44,25.1,44,24.8,44 M16.1,29.1c-1.3,0-2.4-1.1-2.4-2.4
		c0-1.3,1.1-2.4,2.4-2.4c1.4,0,2.4,1.1,2.4,2.4C18.6,28,17.5,29.1,16.1,29.1"/>
</g>
</svg>
